<svg width="81" height="81" viewBox="0 0 81 81" fill="none" xmlns="http://www.w3.org/2000/svg">
<path d="M60.75 60.75C62.1562 60.75 63.351 60.2573 64.3343 59.2718C65.3198 58.2885 65.8125 57.0938 65.8125 55.6875C65.8125 54.2812 65.3198 53.0865 64.3343 52.1032C63.351 51.1177 62.1562 50.625 60.75 50.625C59.3438 50.625 58.149 51.1177 57.1657 52.1032C56.1802 53.0865 55.6875 54.2812 55.6875 55.6875C55.6875 57.0938 56.1802 58.2885 57.1657 59.2718C58.149 60.2573 59.3438 60.75 60.75 60.75ZM60.75 70.875C62.4938 70.875 64.0834 70.4666 65.5189 69.6499C66.9521 68.8354 68.1469 67.7531 69.1031 66.4031C67.8656 65.6719 66.5437 65.1094 65.1375 64.7156C63.7312 64.3219 62.2687 64.125 60.75 64.125C59.2313 64.125 57.7688 64.3219 56.3625 64.7156C54.9563 65.1094 53.6344 65.6719 52.3969 66.4031C53.3531 67.7531 54.549 68.8354 55.9845 69.6499C57.4177 70.4666 59.0062 70.875 60.75 70.875ZM30.375 27H50.625V20.25C50.625 17.4375 49.6406 15.0469 47.6719 13.0781C45.7031 11.1094 43.3125 10.125 40.5 10.125C37.6875 10.125 35.2969 11.1094 33.3281 13.0781C31.3594 15.0469 30.375 17.4375 30.375 20.25V27ZM13.5 74.25V27H23.625V20.25C23.625 15.5813 25.2709 11.601 28.5626 8.30925C31.8521 5.01975 35.8312 3.375 40.5 3.375C45.1688 3.375 49.149 5.01975 52.4408 8.30925C55.7303 11.601 57.375 15.5813 57.375 20.25V27H67.5V38.1375C66.4875 37.8 65.4323 37.5469 64.3343 37.3781C63.2385 37.2094 62.0438 37.125 60.75 37.125V33.75H20.25V67.5H38.1375C38.5875 68.85 39.0375 70.0178 39.4875 71.0033C39.9375 71.9865 40.5562 73.0687 41.3438 74.25H13.5ZM60.75 77.625C56.0812 77.625 52.1021 75.9802 48.8126 72.6908C45.5209 69.399 43.875 65.4188 43.875 60.75C43.875 56.0812 45.5209 52.101 48.8126 48.8092C52.1021 45.5197 56.0812 43.875 60.75 43.875C65.4188 43.875 69.399 45.5197 72.6908 48.8092C75.9803 52.101 77.625 56.0812 77.625 60.75C77.625 65.4188 75.9803 69.399 72.6908 72.6908C69.399 75.9802 65.4188 77.625 60.75 77.625ZM20.25 33.75V67.5V33.75Z" fill="#0E5087"/>
</svg>
