<svg preserveAspectRatio="none" width="109" height="109" viewBox="0 0 109 109" fill="none" xmlns="http://www.w3.org/2000/svg">
<path d="M54.5 87.2C43.1458 87.2 33.1087 81.3867 27.25 72.6667C27.3862 63.5833 45.4166 58.5875 54.5 58.5875C63.5833 58.5875 81.6137 63.5833 81.75 72.6667C78.7474 77.1375 74.6916 80.8015 69.9397 83.3359C65.1877 85.8702 59.8855 87.1972 54.5 87.2M54.5 22.7083C58.1136 22.7083 61.5791 24.1438 64.1343 26.699C66.6895 29.2542 68.125 32.7198 68.125 36.3333C68.125 39.9469 66.6895 43.4125 64.1343 45.9677C61.5791 48.5228 58.1136 49.9583 54.5 49.9583C50.8864 49.9583 47.4208 48.5228 44.8657 45.9677C42.3105 43.4125 40.875 39.9469 40.875 36.3333C40.875 32.7198 42.3105 29.2542 44.8657 26.699C47.4208 24.1438 50.8864 22.7083 54.5 22.7083M54.5 9.08333C48.5358 9.08333 42.63 10.2581 37.1198 12.5405C31.6096 14.8229 26.6029 18.1682 22.3855 22.3856C13.8683 30.9028 9.08331 42.4547 9.08331 54.5C9.08331 66.5452 13.8683 78.0972 22.3855 86.6144C26.6029 90.8318 31.6096 94.1771 37.1198 96.4595C42.63 98.7419 48.5358 99.9167 54.5 99.9167C66.5452 99.9167 78.0971 95.1317 86.6144 86.6144C95.1317 78.0972 99.9167 66.5452 99.9167 54.5C99.9167 29.3846 79.4792 9.08333 54.5 9.08333Z" fill="#0E5087"/>
</svg>
