<svg preserveAspectRatio="none" width="25" height="25" viewBox="0 0 25 25" fill="none" xmlns="http://www.w3.org/2000/svg">
<path d="M12.5 9.375C13.3288 9.375 14.1237 9.70424 14.7097 10.2903C15.2958 10.8763 15.625 11.6712 15.625 12.5C15.625 13.3288 15.2958 14.1237 14.7097 14.7097C14.1237 15.2958 13.3288 15.625 12.5 15.625C11.6712 15.625 10.8764 15.2958 10.2903 14.7097C9.70426 14.1237 9.37502 13.3288 9.37502 12.5C9.37502 11.6712 9.70426 10.8763 10.2903 10.2903C10.8764 9.70424 11.6712 9.375 12.5 9.375ZM12.5 4.6875C17.7084 4.6875 22.1563 7.92708 23.9584 12.5C22.1563 17.0729 17.7084 20.3125 12.5 20.3125C7.29169 20.3125 2.84377 17.0729 1.04169 12.5C2.84377 7.92708 7.29169 4.6875 12.5 4.6875ZM3.31252 12.5C4.15445 14.2191 5.4618 15.6674 7.08594 16.6805C8.71007 17.6935 10.5858 18.2305 12.5 18.2305C14.4142 18.2305 16.29 17.6935 17.9141 16.6805C19.5382 15.6674 20.8456 14.2191 21.6875 12.5C20.8456 10.7809 19.5382 9.33255 17.9141 8.31953C16.29 7.3065 14.4142 6.76946 12.5 6.76946C10.5858 6.76946 8.71007 7.3065 7.08594 8.31953C5.4618 9.33255 4.15445 10.7809 3.31252 12.5Z" fill="#0E5087"/>
</svg>
